<svg width="94" height="94" fill="none" xmlns="http://www.w3.org/2000/svg"><g filter="url(#a)"><path fill="#69B9FF" d="M0 0h94v94H0z"/><path fill-rule="evenodd" clip-rule="evenodd" d="M65.8 18.8H28.2L9.4 37.6v28.2c0 5.33 4.39 9.4 9.4 9.4h56.4c5.33 0 9.4-4.07 9.4-9.4V37.6L65.8 18.8Zm-35.1 6.27h32.6L75.82 37.6h-16.3c0 6.27-5.64 12.53-12.53 12.53-6.9 0-12.53-6.26-12.53-12.53h-16.3l12.54-12.53ZM78.34 65.8c0 1.88-1.25 3.13-3.13 3.13H18.8a3.14 3.14 0 0 1-3.13-3.13V43.87h13.47C31.96 51.07 39.17 56.4 47 56.4s15.04-5.33 17.55-12.53h13.78V65.8Z" fill="#fff"/><path stroke="#fff" stroke-width="10" d="M5 5h84v84H5z"/></g><defs><filter id="a" x="0" y="0" width="94" height="94" filterUnits="userSpaceOnUse" color-interpolation-filters="sRGB"><feFlood flood-opacity="0" result="BackgroundImageFix"/><feColorMatrix in="SourceAlpha" values="0 0 0 0 0 0 0 0 0 0 0 0 0 0 0 0 0 0 127 0" result="hardAlpha"/><feOffset/><feColorMatrix values="0 0 0 0 0.180392 0 0 0 0 0.615686 0 0 0 0 1 0 0 0 1 0"/><feBlend in2="BackgroundImageFix" result="effect1_dropShadow_2_50"/><feBlend in="SourceGraphic" in2="effect1_dropShadow_2_50" result="shape"/></filter></defs></svg>