<svg width="94" height="94" fill="none" xmlns="http://www.w3.org/2000/svg"><g filter="url(#a)"><path fill="#69B9FF" d="M0 0h94v94H0z"/><path fill-rule="evenodd" clip-rule="evenodd" d="M65.8 26v-7.2c0-5.33-4.07-9.4-9.4-9.4H37.6a9.23 9.23 0 0 0-9.4 9.4V26a28.11 28.11 0 0 0 0 42v7.2c0 5.33 4.07 9.4 9.4 9.4h18.8c5.33 0 9.4-4.07 9.4-9.4V68a28.11 28.11 0 0 0 0-42Zm-31.33-7.2c0-1.88 1.25-3.13 3.13-3.13h18.8c1.88 0 3.13 1.25 3.13 3.13v2.82A28.27 28.27 0 0 0 47 18.8c-4.39 0-8.77.94-12.53 2.82V18.8Zm25.06 56.4c0 1.88-1.25 3.13-3.13 3.13H37.6c-1.88 0-3.13-1.25-3.13-3.13v-2.82A28.27 28.27 0 0 0 47 75.2c4.39 0 8.77-.94 12.53-2.82v2.82ZM47 68.93A21.8 21.8 0 0 1 25.07 47 21.8 21.8 0 0 1 47 25.07 21.8 21.8 0 0 1 68.93 47 21.8 21.8 0 0 1 47 68.93Zm3.13-23.18V34.47c0-1.88-1.25-3.14-3.13-3.14s-3.13 1.26-3.13 3.14V47c0 .94.31 1.57.94 2.2l6.26 6.26c.63.63 1.57.94 2.2.94.62 0 1.56-.31 2.19-.94a3.03 3.03 0 0 0 0-4.39l-5.33-5.32Z" fill="#fff"/><path stroke="#fff" stroke-width="10" d="M5 5h84v84H5z"/></g><defs><filter id="a" x="0" y="0" width="94" height="94" filterUnits="userSpaceOnUse" color-interpolation-filters="sRGB"><feFlood flood-opacity="0" result="BackgroundImageFix"/><feColorMatrix in="SourceAlpha" values="0 0 0 0 0 0 0 0 0 0 0 0 0 0 0 0 0 0 127 0" result="hardAlpha"/><feOffset/><feColorMatrix values="0 0 0 0 0.180392 0 0 0 0 0.615686 0 0 0 0 1 0 0 0 1 0"/><feBlend in2="BackgroundImageFix" result="effect1_dropShadow_2_30"/><feBlend in="SourceGraphic" in2="effect1_dropShadow_2_30" result="shape"/></filter></defs></svg>