<svg width="94" height="94" fill="none" xmlns="http://www.w3.org/2000/svg"><g filter="url(#a)"><path fill="#69B9FF" d="M0 0h94v94H0z"/><path fill-rule="evenodd" clip-rule="evenodd" d="M40.73 15.67c-1.88 0-3.13 1.25-3.13 3.13v14.41L17.86 13.47a3.03 3.03 0 0 0-4.39 0 3.03 3.03 0 0 0 0 4.39L33.21 37.6H18.8c-1.88 0-3.13 1.25-3.13 3.13s1.25 3.14 3.13 3.14h21.93a3.14 3.14 0 0 0 3.14-3.14V18.8a3.14 3.14 0 0 0-3.14-3.13Zm39.8 60.47L60.79 56.4H75.2c1.88 0 3.13-1.25 3.13-3.13s-1.25-3.14-3.13-3.14H53.27a3.14 3.14 0 0 0-3.14 3.14V75.2c0 1.88 1.26 3.13 3.14 3.13 1.88 0 3.13-1.25 3.13-3.13V60.79l19.74 19.74a3.03 3.03 0 0 0 4.39 0 3.03 3.03 0 0 0 0-4.39Z" fill="#fff"/><path stroke="#fff" stroke-width="10" d="M5 5h84v84H5z"/></g><defs><filter id="a" x="0" y="0" width="94" height="94" filterUnits="userSpaceOnUse" color-interpolation-filters="sRGB"><feFlood flood-opacity="0" result="BackgroundImageFix"/><feColorMatrix in="SourceAlpha" values="0 0 0 0 0 0 0 0 0 0 0 0 0 0 0 0 0 0 127 0" result="hardAlpha"/><feOffset/><feColorMatrix values="0 0 0 0 0.180392 0 0 0 0 0.615686 0 0 0 0 1 0 0 0 1 0"/><feBlend in2="BackgroundImageFix" result="effect1_dropShadow_2_41"/><feBlend in="SourceGraphic" in2="effect1_dropShadow_2_41" result="shape"/></filter></defs></svg>
