<svg width="19" height="18" fill="none" xmlns="http://www.w3.org/2000/svg"><path d="M1.27 4.73c0 1.47.46 2.6 1.46 3.2.8.54 1.74.6 2.2.6h.27s-.13 1 .6 2h-.07c-1.26 0-5.46.27-5.46 3.74 0 3.53 3.86 3.66 4.66 3.66h.2c.47 0 1.8-.06 3-.66a4 4 0 0 0 2.34-3.87c0-1.73-1.2-2.8-2.07-3.6-.53-.47-1-.87-1-1.27s.33-.73.73-1.06a3.86 3.86 0 0 0 1.34-3.14c0-1.46-.2-2.46-1.34-3.06.2-.07.67-.14.87-.14.6-.06 1.53-.2 1.53-.66V.33h-4.6c-.06 0-4.66.2-4.66 4.4Zm7.46 9c.07 1.4-1.13 2.47-2.93 2.6-1.87.14-3.33-.66-3.4-2.06-.07-.67.27-1.34.87-1.87s1.4-.87 2.26-.93h.34c1.6-.07 2.73.93 2.86 2.26Zm-1.2-10C8 5.33 7.33 7 6.2 7.27c-.13.06-.27.06-.4.06-1 0-2-1-2.33-2.4-.2-.73-.2-1.4.06-2.06.2-.67.67-1.07 1.14-1.2.13-.07.26-.07.4-.07 1.2 0 1.93.47 2.46 2.13Zm7.74 3.4v-3h-2v3h-3v2h3v3h2v-3h3v-2h-3Z" fill="#000"/></svg>