<svg width="20" height="16" fill="none" xmlns="http://www.w3.org/2000/svg"><path d="M17.47 4.4v.47c0 5-3.8 10.73-10.74 10.73-2.13 0-4.13-.6-5.8-1.67.27 0 .6.07.94.07 1.8 0 3.4-.6 4.66-1.6A3.74 3.74 0 0 1 3 9.8c.2.07.47.07.73.07.34 0 .67-.07 1-.14A3.91 3.91 0 0 1 1.67 6v-.07c.53.27 1.06.47 1.73.47a3.73 3.73 0 0 1-1.13-5 10.74 10.74 0 0 0 7.8 3.93C10 5.07 10 4.8 10 4.47a3.8 3.8 0 0 1 3.8-3.8c1.07 0 2.07.46 2.73 1.2a7.5 7.5 0 0 0 2.4-.94c-.26.87-.86 1.6-1.66 2.07.66-.07 1.4-.27 2.06-.53a8.57 8.57 0 0 1-1.86 1.93Z" fill="#000"/></svg>